<?xml version="1.0" encoding="UTF-8"?>
<svg id="Layer_1" xmlns="http://www.w3.org/2000/svg" version="1.1" viewBox="0 0 111 60">
  <!-- Generator: Adobe Illustrator 30.6.0, SVG Export Plug-In . SVG Version: 2.1.4 Build 109)  -->
  <defs>
    <style>
      .st0 {
        fill: #fff;
      }

      .st1 {
        fill: #6bb700;
      }
    </style>
  </defs>
  <g>
    <path class="st0" d="M39.72,29.38c0,1.16-.08,2.13-.25,2.91-.16.78-.48,1.39-.94,1.85s-1.12.69-1.97.69v1.09c1.82,0,3.35-.51,4.61-1.54,1.26-1.02,1.89-2.91,1.89-5.65v-10.69h-3.34v11.34Z"/>
    <polygon class="st0" points="48.45 18.03 49.55 20.8 45.19 32.21 46.24 32.21 50.01 22.13 50.15 22.13 52.37 27.64 48.7 27.64 48.31 28.72 52.81 28.72 54.21 32.21 57.85 32.21 52.02 18.03 48.45 18.03"/>
    <polygon class="st0" points="70.98 26.9 70.84 26.9 63.67 18.03 59.15 18.03 60.51 19.82 60.51 32.21 61.5 32.21 61.5 20.84 61.62 20.84 70.84 32.21 71.96 32.21 71.96 18.03 70.98 18.03 70.98 26.9"/>
    <polygon class="st0" points="77.35 18.03 78.46 20.8 74.09 32.21 75.14 32.21 78.91 22.13 79.05 22.13 81.27 27.64 77.61 27.64 77.21 28.72 81.71 28.72 83.12 32.21 86.75 32.21 80.93 18.03 77.35 18.03"/>
    <polygon class="st0" points="99.88 26.9 99.74 26.9 92.58 18.03 88.05 18.03 89.42 19.82 89.42 32.21 90.4 32.21 90.4 20.84 90.52 20.84 99.74 32.21 100.87 32.21 100.87 18.03 99.88 18.03 99.88 26.9"/>
    <rect class="st0" x="103.59" y="18.03" width="3.34" height="14.17"/>
  </g>
  <g>
    <path class="st0" d="M41.59,39.98v.99h-3.28v-4.51h3.21v.99h-2.06v.76h1.82v.95h-1.82v.82h2.14Z"/>
    <path class="st0" d="M42.24,36.46h1.16v3.5h1.95v1.01h-3.11v-4.51Z"/>
    <path class="st0" d="M49.08,39.98v.99h-3.28v-4.51h3.21v.99h-2.06v.76h1.82v.95h-1.82v.82h2.14Z"/>
    <path class="st0" d="M50.52,40.75c-.34-.2-.61-.48-.8-.83-.19-.36-.29-.76-.29-1.21s.1-.85.29-1.21c.19-.36.46-.63.8-.83s.72-.3,1.15-.3c.37,0,.71.07,1.01.22.3.15.55.36.75.63l-.74.73c-.26-.35-.59-.53-.96-.53-.22,0-.42.05-.59.16-.17.11-.31.26-.4.45-.1.2-.14.42-.14.67s.05.48.14.67c.1.2.23.35.4.45.17.11.37.16.59.16.38,0,.7-.18.96-.53l.74.73c-.2.27-.45.49-.75.63-.3.15-.64.22-1.01.22-.43,0-.81-.1-1.15-.3Z"/>
    <path class="st0" d="M54.86,37.47h-1.26v-1.01h3.66v1.01h-1.25v3.5h-1.16v-3.5Z"/>
    <path class="st0" d="M59.48,39.77h-.63v1.2h-1.16v-4.51h1.87c.37,0,.69.07.96.2.27.14.48.33.63.58.15.25.22.55.22.89s-.07.61-.21.85c-.14.24-.34.43-.59.57l.88,1.42h-1.24l-.74-1.2ZM60.03,37.63c-.12-.12-.3-.17-.54-.17h-.64v1.32h.64c.24,0,.42-.06.54-.17.12-.11.18-.28.18-.49s-.06-.37-.18-.49Z"/>
    <path class="st0" d="M62.02,36.46h1.16v4.51h-1.16v-4.51Z"/>
    <path class="st0" d="M64.88,40.75c-.34-.2-.61-.48-.8-.83-.19-.36-.29-.76-.29-1.21s.1-.85.29-1.21c.19-.36.46-.63.8-.83s.72-.3,1.15-.3c.37,0,.71.07,1.01.22.3.15.55.36.75.63l-.74.73c-.26-.35-.59-.53-.96-.53-.22,0-.42.05-.59.16-.17.11-.31.26-.4.45-.1.2-.14.42-.14.67s.05.48.14.67c.1.2.23.35.4.45.17.11.37.16.59.16.38,0,.7-.18.96-.53l.74.73c-.2.27-.45.49-.75.63-.3.15-.64.22-1.01.22-.43,0-.81-.1-1.15-.3Z"/>
    <path class="st0" d="M70.97,40.09h-1.73l-.32.88h-1.18l1.8-4.51h1.14l1.81,4.51h-1.2l-.32-.88ZM70.63,39.15l-.53-1.44-.53,1.44h1.05Z"/>
    <path class="st0" d="M72.82,36.46h1.16v3.5h1.95v1.01h-3.11v-4.51Z"/>
    <path class="st0" d="M76.85,40.92c-.31-.09-.56-.21-.76-.36l.38-.94c.18.13.39.24.64.32.24.08.48.12.71.12.44,0,.67-.12.67-.37,0-.13-.06-.22-.19-.29-.13-.06-.33-.13-.61-.2-.31-.07-.56-.15-.77-.24-.21-.08-.38-.22-.53-.4-.15-.18-.22-.43-.22-.75,0-.27.07-.52.2-.74.14-.22.34-.4.61-.52.27-.13.6-.19,1-.19.27,0,.53.03.79.1.26.07.49.16.69.29l-.36.95c-.39-.23-.77-.35-1.13-.35-.23,0-.4.04-.5.11-.11.08-.16.17-.16.29s.06.21.19.27c.12.06.32.12.6.19.31.07.57.15.77.24.2.08.38.22.53.4.15.18.22.43.22.74,0,.27-.07.52-.2.73-.14.22-.34.39-.61.52-.27.13-.6.2-.99.2-.33,0-.65-.05-.96-.14Z"/>
    <path class="st0" d="M84.68,36.66c.27.14.48.33.63.58.15.25.22.55.22.89s-.07.63-.22.88c-.15.25-.36.44-.63.58-.27.14-.59.2-.96.2h-.71v1.18h-1.16v-4.51h1.87c.37,0,.69.07.96.2ZM84.19,38.61c.12-.11.18-.28.18-.49s-.06-.37-.18-.49c-.12-.12-.3-.17-.54-.17h-.64v1.32h.64c.24,0,.42-.06.54-.17Z"/>
    <path class="st0" d="M89.94,36.46l-1.75,4.51h-1.14l-1.75-4.51h1.25l1.11,2.94,1.13-2.94h1.14Z"/>
    <path class="st0" d="M91.29,37.47h-1.26v-1.01h3.66v1.01h-1.25v3.5h-1.16v-3.5Z"/>
    <path class="st0" d="M95.82,36.46h1.16v3.5h1.95v1.01h-3.11v-4.51Z"/>
    <path class="st0" d="M99.79,37.47h-1.26v-1.01h3.66v1.01h-1.25v3.5h-1.16v-3.5Z"/>
    <path class="st0" d="M102.71,36.46h1.93c.45,0,.84.09,1.19.28.35.18.62.45.81.79.19.34.29.74.29,1.19s-.1.85-.29,1.19c-.19.34-.46.6-.81.79-.35.18-.74.28-1.19.28h-1.93v-4.51ZM104.6,39.95c.35,0,.63-.11.84-.33s.32-.52.32-.91-.11-.69-.32-.91c-.21-.22-.49-.33-.84-.33h-.73v2.47h.73Z"/>
  </g>
  <g>
    <path class="st1" d="M39.68,47.03v.37h-1.63v-2.4h1.59v.37h-1.18v.62h1.05v.37h-1.05v.66h1.23Z"/>
    <path class="st1" d="M42.33,45.76c.13.13.19.33.19.6v1.05h-.39v-.99c0-.16-.03-.28-.1-.36-.07-.08-.17-.12-.29-.12-.14,0-.26.05-.34.14-.08.09-.12.23-.12.41v.92h-.39v-1.83h.37v.24c.06-.08.14-.15.24-.19s.21-.07.33-.07c.21,0,.38.07.5.2Z"/>
    <path class="st1" d="M45.39,46.63h-1.3c.02.13.08.24.18.32s.22.12.36.12c.18,0,.33-.07.45-.2l.21.26c-.07.1-.17.17-.28.22-.11.05-.24.08-.38.08-.18,0-.34-.04-.48-.12s-.25-.19-.32-.33c-.08-.14-.11-.3-.11-.48s.04-.34.11-.48c.07-.14.18-.25.31-.33.13-.08.28-.12.44-.12s.31.04.43.12.23.19.3.33c.07.14.11.31.11.49,0,.03,0,.07,0,.13ZM44.24,46.02c-.09.08-.14.19-.16.32h.94c-.02-.13-.07-.24-.15-.32-.08-.08-.19-.12-.32-.12s-.23.04-.32.12Z"/>
    <path class="st1" d="M47.53,45.56v.41s-.06-.01-.09-.01c-.15,0-.27.05-.35.15s-.13.24-.13.42v.89h-.39v-1.83h.37v.27c.11-.19.31-.29.59-.29Z"/>
    <path class="st1" d="M50.29,45.58v1.55c0,.64-.3.97-.89.97-.16,0-.31-.02-.45-.07s-.26-.11-.35-.19l.17-.32c.07.07.16.12.27.16.11.04.22.06.34.06.18,0,.32-.05.4-.14.08-.09.13-.23.13-.42v-.1c-.07.08-.15.14-.24.18s-.2.06-.31.06c-.16,0-.3-.04-.43-.11s-.23-.18-.3-.31c-.07-.13-.11-.29-.11-.46s.04-.33.11-.46c.07-.13.17-.24.3-.31s.27-.11.43-.11c.12,0,.23.02.33.07s.18.11.25.2v-.24h.37ZM49.77,46.81c.09-.1.14-.22.14-.38s-.05-.28-.14-.37c-.09-.1-.21-.14-.36-.14s-.27.05-.36.14c-.09.1-.14.22-.14.37s.05.28.14.38c.09.1.22.15.36.15s.27-.05.36-.15Z"/>
    <path class="st1" d="M51.62,45.2s-.07-.11-.07-.18.02-.13.07-.18.11-.07.18-.07.13.02.18.07c.05.05.07.11.07.18,0,.08-.02.14-.07.19-.05.05-.11.08-.18.08s-.13-.02-.18-.07ZM51.6,45.58h.39v1.83h-.39v-1.83Z"/>
    <path class="st1" d="M54.6,47.06v.34h-1.43v-.27l.91-1.21h-.89v-.34h1.39v.27l-.91,1.21h.94Z"/>
    <path class="st1" d="M55.78,45.2s-.07-.11-.07-.18.02-.13.07-.18.11-.07.18-.07.13.02.18.07c.05.05.07.11.07.18,0,.08-.02.14-.07.19-.05.05-.11.08-.18.08s-.13-.02-.18-.07ZM55.76,45.58h.39v1.83h-.39v-1.83Z"/>
    <path class="st1" d="M58.9,45.76c.13.13.19.33.19.6v1.05h-.39v-.99c0-.16-.03-.28-.1-.36-.07-.08-.17-.12-.29-.12-.14,0-.26.05-.34.14-.08.09-.12.23-.12.41v.92h-.39v-1.83h.37v.24c.06-.08.14-.15.24-.19s.21-.07.33-.07c.21,0,.38.07.5.2Z"/>
    <path class="st1" d="M62.05,45.58v1.55c0,.64-.3.97-.89.97-.16,0-.31-.02-.45-.07s-.26-.11-.35-.19l.17-.32c.07.07.16.12.27.16.11.04.22.06.34.06.18,0,.32-.05.4-.14.08-.09.13-.23.13-.42v-.1c-.07.08-.15.14-.24.18s-.2.06-.31.06c-.16,0-.3-.04-.43-.11s-.23-.18-.3-.31c-.07-.13-.11-.29-.11-.46s.04-.33.11-.46c.07-.13.17-.24.3-.31s.27-.11.43-.11c.12,0,.23.02.33.07s.18.11.25.2v-.24h.37ZM61.53,46.81c.09-.1.14-.22.14-.38s-.05-.28-.14-.37c-.09-.1-.21-.14-.36-.14s-.27.05-.36.14c-.09.1-.14.22-.14.37s.05.28.14.38c.09.1.22.15.36.15s.27-.05.36-.15Z"/>
    <path class="st1" d="M65.46,45.38v.73h1.05v.38h-1.05v.92h-.4v-2.4h1.59v.37h-1.18Z"/>
    <path class="st1" d="M69.36,45.58v1.83h-.37v-.23c-.06.08-.14.15-.23.19-.09.04-.19.07-.3.07-.22,0-.4-.07-.52-.2s-.19-.34-.19-.6v-1.04h.39v.99c0,.16.03.29.1.37.07.08.16.12.29.12.14,0,.25-.05.33-.14.08-.09.12-.23.12-.41v-.92h.39Z"/>
    <path class="st1" d="M71.67,47.3s-.1.07-.17.09c-.07.02-.13.03-.21.03-.18,0-.32-.05-.42-.16s-.15-.26-.15-.46v-.88h-.27v-.34h.27v-.42h.39v.42h.44v.34h-.44v.87c0,.09.02.16.06.2.04.05.1.07.17.07.09,0,.16-.03.22-.08l.11.3Z"/>
    <path class="st1" d="M74.4,45.58v1.83h-.37v-.23c-.06.08-.14.15-.23.19-.09.04-.19.07-.3.07-.22,0-.4-.07-.52-.2s-.19-.34-.19-.6v-1.04h.39v.99c0,.16.03.29.1.37.07.08.16.12.29.12.14,0,.25-.05.33-.14.08-.09.12-.23.12-.41v-.92h.39Z"/>
    <path class="st1" d="M76.67,45.56v.41s-.06-.01-.09-.01c-.15,0-.27.05-.35.15s-.13.24-.13.42v.89h-.39v-1.83h.37v.27c.11-.19.31-.29.59-.29Z"/>
    <path class="st1" d="M79.34,46.63h-1.3c.02.13.08.24.18.32s.22.12.36.12c.18,0,.33-.07.45-.2l.21.26c-.07.1-.17.17-.28.22-.11.05-.24.08-.38.08-.18,0-.34-.04-.48-.12s-.25-.19-.32-.33c-.08-.14-.11-.3-.11-.48s.04-.34.11-.48c.07-.14.18-.25.31-.33.13-.08.28-.12.44-.12s.31.04.43.12.23.19.3.33c.07.14.11.31.11.49,0,.03,0,.07,0,.13ZM78.19,46.02c-.09.08-.14.19-.16.32h.94c-.02-.13-.07-.24-.15-.32-.08-.08-.19-.12-.32-.12s-.23.04-.32.12Z"/>
    <path class="st1" d="M82.22,45.01h.4v2.02h1.14v.38h-1.54v-2.4Z"/>
    <path class="st1" d="M86.05,45.75c.13.13.19.32.19.58v1.07h-.37v-.22c-.05.08-.12.14-.2.18-.09.04-.19.06-.32.06s-.23-.02-.33-.07c-.09-.05-.16-.11-.22-.2-.05-.08-.08-.18-.08-.28,0-.16.06-.3.17-.4.11-.1.28-.15.52-.15h.43v-.03c0-.13-.03-.23-.1-.29-.07-.07-.17-.1-.31-.1-.09,0-.18.02-.27.05-.09.03-.17.08-.23.13l-.15-.31c.09-.07.19-.13.31-.17.12-.04.25-.06.39-.06.24,0,.43.06.56.19ZM85.7,47.04c.08-.05.13-.12.16-.21v-.21h-.4c-.22,0-.34.08-.34.24,0,.08.03.14.08.18.06.05.13.07.23.07s.18-.02.26-.07Z"/>
    <path class="st1" d="M88.99,45.76c.13.13.19.33.19.6v1.05h-.39v-.99c0-.16-.03-.28-.1-.36-.07-.08-.17-.12-.29-.12-.14,0-.26.05-.34.14-.08.09-.12.23-.12.41v.92h-.39v-1.83h.37v.24c.06-.08.14-.15.24-.19s.21-.07.33-.07c.21,0,.38.07.5.2Z"/>
    <path class="st1" d="M92.11,44.86v2.54h-.37v-.24c-.06.09-.14.15-.24.2-.09.04-.2.07-.31.07-.16,0-.3-.04-.43-.12-.13-.08-.23-.19-.3-.33-.07-.14-.11-.31-.11-.49s.04-.35.11-.49c.07-.14.17-.25.3-.33.13-.08.27-.12.43-.12.11,0,.21.02.3.06.09.04.17.1.23.18v-.94h.39ZM91.49,46.99c.07-.05.13-.11.18-.2s.07-.19.07-.3-.02-.21-.07-.3-.1-.15-.18-.2c-.07-.05-.16-.07-.25-.07s-.18.02-.25.07c-.07.05-.13.11-.18.2s-.07.19-.07.3.02.21.07.3.1.15.18.2c.07.05.16.07.25.07s.18-.02.25-.07Z"/>
    <path class="st1" d="M96.01,45.76c.12.13.18.33.18.6v1.05h-.39v-.99c0-.16-.03-.28-.1-.36-.06-.08-.16-.12-.28-.12-.13,0-.23.05-.31.14-.08.09-.12.23-.12.41v.93h-.39v-.99c0-.16-.03-.28-.1-.36-.06-.08-.16-.12-.28-.12-.13,0-.24.05-.32.14-.08.09-.12.23-.12.41v.93h-.39v-1.83h.37v.23c.06-.08.14-.14.23-.19s.2-.07.31-.07c.12,0,.23.03.33.08.1.05.17.13.23.23.07-.1.16-.17.26-.22.11-.05.23-.08.36-.08.21,0,.37.07.5.2Z"/>
    <path class="st1" d="M98.69,45.75c.13.13.19.32.19.58v1.07h-.37v-.22c-.05.08-.12.14-.2.18-.09.04-.19.06-.32.06s-.23-.02-.33-.07c-.09-.05-.16-.11-.22-.2-.05-.08-.08-.18-.08-.28,0-.16.06-.3.17-.4.11-.1.28-.15.52-.15h.43v-.03c0-.13-.03-.23-.1-.29-.07-.07-.17-.1-.31-.1-.09,0-.18.02-.27.05-.09.03-.17.08-.23.13l-.15-.31c.09-.07.19-.13.31-.17.12-.04.25-.06.39-.06.24,0,.43.06.56.19ZM98.33,47.04c.08-.05.13-.12.16-.21v-.21h-.4c-.22,0-.34.08-.34.24,0,.08.03.14.08.18.06.05.13.07.23.07s.18-.02.26-.07Z"/>
    <path class="st1" d="M101.14,45.56v.41s-.06-.01-.09-.01c-.15,0-.27.05-.35.15s-.13.24-.13.42v.89h-.39v-1.83h.37v.27c.11-.19.31-.29.59-.29Z"/>
    <path class="st1" d="M102.95,46.62l-.29.3v.48h-.39v-2.54h.39v1.53l.8-.82h.47l-.69.77.76,1.06h-.47l-.57-.78Z"/>
    <path class="st1" d="M105.12,47.37c-.13-.04-.23-.09-.31-.15l.15-.33c.07.05.16.1.27.13.1.03.21.05.31.05.23,0,.35-.07.35-.2,0-.06-.03-.11-.09-.13-.06-.03-.15-.05-.28-.07-.14-.02-.25-.05-.33-.08s-.16-.08-.22-.16c-.06-.07-.09-.18-.09-.31,0-.17.07-.31.2-.42.13-.1.31-.16.53-.16.11,0,.23.01.34.04s.21.07.28.11l-.15.33c-.14-.09-.3-.14-.47-.14-.11,0-.2.02-.26.06-.06.04-.09.09-.09.15,0,.07.03.12.09.15.06.03.16.06.29.08.13.02.24.05.33.08.08.03.16.08.22.15.06.07.09.17.09.3,0,.17-.07.31-.2.41-.13.1-.32.15-.55.15-.13,0-.27-.02-.39-.06Z"/>
  </g>
  <rect class="st1" x="37.31" y="43.18" width="69.59" height=".3"/>
  <g>
    <path class="st1" d="M28.47,15.06c-2.76-2.7-6.39-4.16-10.22-4.12-3.8.05-7.36,1.56-10.03,4.26-2.67,2.71-4.15,6.29-4.15,10.09,0,4.07,1.74,7.97,4.77,10.69,1.27,1.14,2,2.74,2,4.39v2.71h3.23l.21-1.22h-2.22v-1.49c0-2-.88-3.93-2.4-5.3-2.78-2.49-4.37-6.05-4.37-9.78,0-3.48,1.35-6.76,3.79-9.23,2.44-2.47,5.7-3.86,9.18-3.9.05,0,.11,0,.16,0,3.45,0,6.71,1.34,9.19,3.77,2.52,2.47,3.92,5.76,3.94,9.27.03,3.8-1.59,7.42-4.45,9.94-1.48,1.3-2.32,3.21-2.32,5.23v1.49h-2.17l.17,1.22h3.23v-2.71c0-1.67.7-3.24,1.91-4.31,3.12-2.75,4.89-6.71,4.86-10.87-.03-3.83-1.56-7.43-4.31-10.14Z"/>
    <polygon class="st1" points="13.93 43.85 10.82 43.85 10.82 45.08 13.72 45.08 13.93 43.85"/>
    <polygon class="st1" points="23.16 45.08 26.04 45.08 26.04 43.85 22.96 43.85 23.16 45.08"/>
    <rect class="st1" x="13.46" y="47.84" width="9.93" height="1.22"/>
    <path class="st1" d="M27.26,20.31v-.29l-4.6-1.65-.33-.12-1.61-.58-.97-.35-1.3-3.87-1.3,3.87-.97.35-1.63.59-.33.12-4.58,1.65v.29h1.25v.25h-.46v.6h.46v.39h-.46v.6h1.53v-.6h-.46v-.39h.46v-.6h-.46v-.25h5.34l-.17,2.53-2.97,1.12-.23.09-3.82,1.43v.28h.43v.3h-.46v.6h.46v.39h-.46v.6h1.53v-.6h-.47v-.39h.47v-.6h-.47v-.3h5.78l-.19,2.73h0l-2.54,1-.27.11-3.82,1.5v.27h.43v.25h-.46v.6h.46v.39h-.46v.6h1.53v-.6h-.47v-.39h.47v-.6h-.47v-.25h5.4l-.23,3.29-.1,1.47v.09s-.03.15-.03.15l-.83,5.01-.05.32-.56,3.38-.05.33-.07.45h-2.05v1.22h12.69v-1.22h-2.02l-.07-.45-.05-.33-.56-3.38-.05-.32-.83-5.01-.02-.15v-.09s-.11-1.47-.11-1.47l-.23-3.29h5.34v.25h-.46v.6h.46v.39h-.46v.6h1.53v-.6h-.46v-.39h.46v-.6h-.46v-.25h.49v-.27l-3.49-1.37-.3-.12-2.84-1.12-.19-2.73h5.72v.3h-.46v.6h.46v.39h-.46v.6h1.53v-.6h-.46v-.39h.46v-.6h-.46v-.3h.49v-.28l-3.74-1.4-.23-.09-3.05-1.14-.17-2.53h5.48v.25h-.47v.6h.47v.39h-.47v.6h1.53v-.6h-.46v-.39h.46v-.6h-.46v-.25h1.11ZM14.21,19.71h-1.94l1.94-.7h0v.7ZM13.45,25.16h-1.25l1.25-.47v.47ZM13.45,30.77h-1.32l1.32-.52v.52ZM23.77,30.38l.99.39h-.99v-.39ZM23.51,24.72l1.17.44h-1.17v-.44ZM16.44,36.23l1.36-1.57.64-.75.64.75,1.36,1.57-2,1.85-2-1.85ZM21.22,41.46l-2.77,1.44-2.77-1.44,2.77-2.56,2.77,2.56ZM17.04,31.37h2.81l-1.4,1.63-1.4-1.63ZM17.47,30.77l.97-.58.97.58h-1.94ZM17.48,28.92h.96s.96,0,.96,0l-.96.57-.96-.57ZM17.43,28.31l1.02-.92,1.02.92h-2.03ZM18.99,19.71h-1.09l.55-.52.54.52ZM17.93,17.86h1.05l-.53.5-.52-.5ZM19.06,20.31l-.61.67-.61-.67h1.23ZM19.22,22.7h-1.54l.77-.84.77.84ZM19.25,23.31l-.81.58-.81-.58h1.62ZM19.18,25.16h-1.48l.74-.53.74.53ZM19.34,25.76l-.89.81-.9-.81h1.79ZM18.89,26.98l.97-.88.13,1.88-1.1-1ZM19.77,24.84l-.81-.58.74-.53.08,1.11ZM19.59,22.23l-.74-.8.64-.69.1,1.5ZM19.39,19.26l-.5-.48.44-.42.06.9ZM18.44,15.35l.64,1.91h-1.28l.64-1.91ZM17.56,18.34l.45.43-.51.49.06-.92ZM17.4,20.73l.64.69-.74.8.1-1.5ZM17.19,23.73l.74.53-.81.58.08-1.11ZM18,26.98l-1.1,1,.03-.41.1-1.47.97.88ZM14.81,19.71v-.62l1.14.62h-1.14ZM15.25,18.64l1.73-.62-.1,1.5-1.63-.88ZM16.81,29.22l1.04.62-1.13.68.09-1.3ZM14.05,25.16v-.41l1.08.41h-1.08ZM14.52,24.29l2.08-.78h0l-.1,1.53-1.97-.75ZM16.44,34.66l.19-2.75v-.09s1.42,1.64,1.42,1.64l-1.04,1.21-.61.71.05-.71ZM14.05,30.77v-.45l.98.45h-.98ZM14.47,29.85l1.74-.69-.1,1.45-1.64-.77ZM16.23,36.85l1.77,1.63-2.41,2.22.64-3.86ZM15.38,41.99l2.41,1.25-2.86,1.49.45-2.74ZM21.08,45.85h-5.27l-.71-.53,3.35-1.74,3.35,1.74-.71.53ZM21.96,44.72l-2.86-1.49,2.41-1.25.45,2.74ZM23.16,30.77h-1.03l1.03-.39v.39ZM22.63,29.93l-1.86.71-.1-1.48,1.96.77ZM20.66,36.85l.64,3.86-2.41-2.22,1.77-1.63ZM22.91,25.16h-1.08l1.08-.39v.39ZM22.41,24.31l-2.02.74-.11-1.53,2.13.8ZM20.25,31.82l.2,2.84.05.71-.61-.71-1.04-1.21,1.41-1.64ZM20.07,29.22l.09,1.3-1.13-.68,1.04-.62ZM22.05,19.71h-1.14l1.14-.62v.62ZM21.62,18.64l-1.61.88-.1-1.5,1.72.62.75.27-.75-.27ZM22.66,19.71v-.7l1.96.7h-1.96Z"/>
  </g>
</svg>